<svg xmlns="http://www.w3.org/2000/svg" xmlns:xlink="http://www.w3.org/1999/xlink" id="Layer_1" width="500" height="500" x="0" y="0" enable-background="new 0 0 500 500" version="1.1" viewBox="0 0 500 500" xml:space="preserve"><g><path d="M152.622,268.302v-57.516h15.012c4.5,0,8.344,1.594,11.531,4.781c3.187,3.188,4.781,7.031,4.781,11.531 c0,4.313-1.489,8.028-4.465,11.145c2.297,1.5,4.101,3.445,5.414,5.836c1.359,2.438,2.039,5.075,2.039,7.91 c0,4.5-1.594,8.345-4.781,11.531c-3.188,3.188-7.031,4.781-11.531,4.781H152.622z M160.392,235.642h7.066 c2.414,0,4.465-0.832,6.152-2.496c1.71-1.688,2.566-3.703,2.566-6.047c0-2.367-0.832-4.382-2.496-6.047 c-1.688-1.664-3.704-2.496-6.047-2.496h-7.242V235.642z M160.392,260.532h10.23c2.343,0,4.359-0.831,6.047-2.496 c1.664-1.688,2.496-3.703,2.496-6.047c0-2.367-0.832-4.395-2.496-6.082c-1.688-1.664-3.704-2.496-6.047-2.496h-10.23V260.532z"/><path d="M216.466,265.841c-2.602,1.641-5.532,2.461-8.789,2.461c-4.547,0-8.426-1.617-11.637-4.852 c-3.258-3.234-4.887-7.124-4.887-11.672c0-4.547,1.629-8.425,4.887-11.637c3.211-3.257,7.089-4.887,11.637-4.887 c4.57,0,8.473,1.629,11.707,4.887c3.234,3.211,4.852,7.09,4.852,11.637v16.523h-7.77V265.841z M201.56,245.661 c-1.665,1.711-2.496,3.75-2.496,6.117c0,2.368,0.832,4.407,2.496,6.117c1.71,1.688,3.75,2.531,6.117,2.531 c2.391,0,4.441-0.844,6.152-2.531c1.688-1.71,2.531-3.749,2.531-6.117c0-2.367-0.844-4.406-2.531-6.117 c-1.711-1.688-3.762-2.531-6.152-2.531C205.309,243.13,203.27,243.974,201.56,245.661z"/><path d="M236.224,268.302h-7.77v-57.516h7.77V268.302z"/><path d="M248.774,243.657c-0.938,0.961-2.074,1.441-3.41,1.441c-1.359,0-2.52-0.48-3.48-1.441c-0.961-0.984-1.441-2.145-1.441-3.48 c0-1.359,0.48-2.519,1.441-3.48c0.961-0.961,2.121-1.441,3.48-1.441c1.336,0,2.473,0.48,3.41,1.441 c0.961,0.961,1.441,2.122,1.441,3.48C250.216,241.513,249.735,242.673,248.774,243.657z M249.231,268.302h-7.77v-19.688h7.77 V268.302z"/><path fill="#ED2226" d="M288.114,268.302l-25.84-31.289v31.289h-7.84v-57.516h7.84v18.563l18.563-18.563h11.074l-22.5,22.5 l28.863,35.016H288.114z"/><path fill="#ED2226" d="M309.524,268.302c-4.5,0-8.332-1.594-11.496-4.781c-3.188-3.164-4.781-6.996-4.781-11.496v-16.77h7.84 v16.77c0,2.344,0.82,4.348,2.461,6.012c1.688,1.665,3.691,2.496,6.012,2.496s4.324-0.831,6.012-2.496 c1.641-1.664,2.461-3.668,2.461-6.012v-16.77h7.84v16.77c0,4.5-1.594,8.332-4.781,11.496c-3.164,3.188-6.996,4.781-11.496,4.781 H309.524z"/></g><path d="M330.038,267.581c-0.469,0.481-1.037,0.721-1.705,0.721c-0.68,0-1.26-0.239-1.74-0.721c-0.481-0.492-0.721-1.072-0.721-1.74	c0-0.679,0.239-1.259,0.721-1.74c0.48-0.48,1.061-0.721,1.74-0.721c0.668,0,1.236,0.24,1.705,0.721	c0.48,0.481,0.721,1.062,0.721,1.74C330.759,266.509,330.519,267.089,330.038,267.581z"/></svg>